<?xml version="1.0" encoding="iso-8859-1"?>
<!-- Uploaded to: SVG Repo, www.svgrepo.com, Generator: SVG Repo Mixer Tools -->
<svg height="800px" width="800px" version="1.1" id="Layer_1" xmlns="http://www.w3.org/2000/svg" xmlns:xlink="http://www.w3.org/1999/xlink" 
	 viewBox="0 0 512 512" xml:space="preserve">
<path style="fill:#494434;" d="M467.478,400.696v75.035l-77.913-8.252l-55.652-89.043L267.13,278.261l-77.913-66.783v-50.087
	c0-33.81,27.408-61.217,61.217-61.217l0,0c12.295,0,22.261,9.966,22.261,22.261v55.652h38.957c24.588,0,44.522,19.934,44.522,44.522
	v55.652h22.261c18.442,0,33.391,14.949,33.391,33.391v66.783h33.391C457.512,378.435,467.478,388.401,467.478,400.696z"/>
<path style="fill:#776F4F;" d="M467.478,475.73v-75.035c0-12.295-9.966-22.261-22.261-22.261h-61.18l5.527,89.043L467.478,475.73z
	 M356.174,278.261v-55.652c0-24.588-19.933-44.522-44.522-44.522h-38.957l-5.565,100.174H356.174z"/>
<path style="fill:#80995F;" d="M512,505.038v0.108c0,3.785-3.069,6.854-6.854,6.854h-71.059
	c-75.047,0-144.436-24.767-200.348-66.562v33.171c0,18.442-14.949,33.391-33.391,33.391h-33.391l0,0H89.043
	c-18.442,0-33.391-14.949-33.391-33.391l0,0c0-18.441,14.949-33.391,33.391-33.391h77.913v-66.139
	c-27.304-36.04-47.462-77.765-58.339-123.078H11.13C4.983,256,0,251.017,0,244.87l0,0c0-18.442,14.949-33.391,33.391-33.391h67.712
	c-0.367-3.694-0.685-7.402-0.929-11.13v-89.043H63.886c-16.841,0-30.495-13.654-30.495-30.495l0,0c0-8.902,3.89-17.36,10.65-23.154
	l51.29-43.963C105.638,4.856,118.767,0,132.343,0l0,0c31.411,0,56.874,25.463,56.874,56.874v121.213v0.738
	c55.696,5.217,105.312,38.6,131.044,89.074c43.977,86.258,116.368,206.9,187.144,230.669C510.168,499.496,512,502.124,512,505.038z"
	/>
<path style="fill:#8CAE65;" d="M512,505.038v0.108c0,3.785-3.069,6.854-6.854,6.854h-71.059c-10.657,0-21.197-0.516-31.604-1.494
	c-57.737-44.582-112.93-138.46-149.004-209.216c-25.732-50.473-75.349-83.857-131.044-89.074v-0.738h-21.331
	c-0.367-3.694-0.685-7.402-0.929-11.13v-89.043H63.886c-16.841,0-30.495-13.654-30.495-30.495l0,0c0-8.902,3.89-17.36,10.65-23.154
	l51.29-43.963C105.638,4.856,118.767,0,132.343,0l0,0c31.411,0,56.874,25.463,56.874,56.874v98.952v22.261v0.738
	c55.696,5.217,105.312,38.6,131.044,89.074c43.977,86.258,116.368,206.9,187.144,230.669C510.168,499.496,512,502.124,512,505.038z"
	/>
<path style="fill:#4C443B;" d="M144.696,42.296v2.226c0,6.147-4.983,11.13-11.13,11.13c-6.147,0-11.13-4.983-11.13-11.13v-2.226
	c0-6.147,4.983-11.13,11.13-11.13C139.713,31.165,144.696,36.148,144.696,42.296z"/>
</svg>